# Blender v2.91.2 OBJ File: 'chicken.blend'
# www.blender.org
mtllib chicken.mtl
o Cube
v -0.468177 0.625507 -0.310138
v -0.124020 2.360987 -0.344390
v 0.468177 0.625507 -0.310139
v 0.124020 2.360987 -0.344390
v -0.468177 0.625507 0.364435
v -0.124020 2.360987 0.184279
v 0.468177 0.625507 0.364435
v 0.124020 2.360987 0.184279
v -0.111492 1.804880 -0.548233
v 0.111492 1.804880 -0.548233
v 0.468177 1.971020 -0.135297
v -0.468177 1.971020 -0.135297
v 0.468177 1.041297 0.664295
v 0.468177 0.625507 0.664295
v -0.468177 0.625507 0.664295
v -0.468177 1.041297 0.664295
v -0.111492 1.971516 -0.548233
v 0.111492 1.971516 -0.548233
v 0.468177 2.161624 -0.135297
v -0.468177 2.161624 -0.135297
v -0.124020 2.564503 -0.344390
v 0.124020 2.564503 -0.344390
v 0.124020 2.564503 0.184279
v -0.124020 2.564503 0.184279
v -0.468177 1.041297 -0.310138
v -0.468177 2.161624 -0.333412
v 0.468177 2.161624 -0.333412
v 0.468177 1.041297 -0.310139
v -0.111493 1.804880 -0.853086
v -0.111493 1.971516 -0.853086
v 0.111492 1.971516 -0.853086
v 0.111492 1.804880 -0.853086
v 0.111492 1.971516 -0.700659
v -0.111493 1.971516 -0.700659
v 0.111492 1.804880 -0.700659
v -0.111493 1.804880 -0.700659
v -0.111492 1.666534 -0.548233
v 0.111492 1.666534 -0.548233
v -0.111493 1.666534 -0.700659
v 0.111492 1.666534 -0.700659
v 0.468177 1.971020 -0.333412
v 0.468177 0.449436 -0.548233
v 0.468177 0.449436 0.388121
v -0.468177 0.449436 -0.548233
v -0.468177 0.449436 0.388121
v -0.468177 1.971020 -0.333412
v -0.468177 1.041297 0.364435
v 0.468177 1.041297 0.364435
v 0.398067 1.147257 0.878703
v 0.398067 0.519546 0.878703
v -0.398066 1.147257 0.878703
v -0.398066 0.519546 0.878703
v 0.605482 1.041297 0.364435
v 0.605482 0.625507 0.364435
v -0.605482 1.041297 0.364435
v -0.605482 0.625507 0.364435
v 0.605482 1.041297 -0.310139
v 0.605482 0.625507 -0.310139
v -0.605482 0.625507 -0.310138
v -0.605482 1.041297 -0.310138
v 0.605482 1.041297 0.664295
v 0.605482 0.625507 0.664295
v -0.605482 1.041297 0.664295
v -0.605482 0.625507 0.664295
v -0.468177 1.217368 -0.548233
v -0.468177 2.360987 -0.548233
v 0.468177 2.360987 -0.548233
v 0.468177 2.360987 0.388121
v -0.468177 2.360987 0.388121
v 0.468177 1.217368 -0.548233
v 0.468177 1.217368 0.388121
v -0.468177 1.217368 0.388121
v 0.346182 0.031106 0.235220
v -0.346182 0.031106 0.235220
v 0.346182 0.454101 0.235220
v -0.346182 0.454101 0.235220
v -0.346182 0.454101 0.037105
v 0.346182 0.454101 0.037105
v 0.346182 0.031106 0.037105
v -0.346182 0.031106 0.037105
v -0.174095 0.031106 0.037105
v -0.174095 0.454101 0.037105
v 0.174095 0.454101 0.037105
v 0.174095 0.454101 0.235220
v -0.174095 0.454101 0.235220
v 0.174095 0.031106 0.037105
v 0.174095 0.031106 0.235220
v -0.174095 0.031106 0.235220
v -0.422247 0.031106 0.357294
v -0.422247 0.031106 -0.130992
v 0.422247 0.031106 -0.130992
v 0.422247 0.031106 0.357293
v -0.098030 0.031106 0.357293
v -0.098030 0.031106 -0.130992
v 0.098030 0.031106 -0.130992
v 0.098030 0.031106 0.357293
v -0.422247 -0.031873 0.357294
v -0.422247 -0.031873 -0.130992
v 0.422247 -0.031873 -0.130992
v 0.422247 -0.031873 0.357293
v -0.098030 -0.031873 0.357293
v -0.098030 -0.031873 -0.130992
v 0.098030 -0.031873 -0.130992
v 0.098030 -0.031873 0.357293
v -0.288820 0.031106 0.235221
v -0.231457 0.031106 0.235220
v -0.231457 0.031106 0.037105
v -0.288820 0.031106 0.037105
v -0.288820 0.454101 0.037105
v -0.231457 0.454101 0.037105
v -0.231457 0.454101 0.235220
v -0.288820 0.454101 0.235221
v -0.314175 0.031106 0.357294
v -0.206103 0.031106 0.357294
v -0.206103 0.031106 -0.130992
v -0.314175 0.031106 -0.130992
v -0.314175 -0.031873 0.357294
v -0.206103 -0.031873 0.357294
v -0.206103 -0.031873 -0.130992
v -0.314175 -0.031873 -0.130992
v 0.288820 0.454101 0.037105
v 0.231457 0.454101 0.037105
v 0.231457 0.031106 0.037105
v 0.288820 0.031106 0.037105
v 0.288820 0.454101 0.235220
v 0.231457 0.454101 0.235220
v 0.288820 0.031106 0.235220
v 0.231457 0.031106 0.235220
v 0.206103 0.031106 -0.130992
v 0.314175 0.031106 -0.130992
v 0.314175 0.031106 0.357293
v 0.206103 0.031106 0.357293
v 0.206103 -0.031873 -0.130992
v 0.314175 -0.031873 -0.130992
v 0.314175 -0.031873 0.357293
v 0.206103 -0.031873 0.357293
v 0.314175 0.031106 -0.280633
v 0.422247 0.031106 -0.280633
v -0.314175 0.031106 -0.280633
v -0.422247 0.031106 -0.280633
v 0.314175 -0.031873 -0.280633
v 0.422247 -0.031873 -0.280633
v -0.314175 -0.031873 -0.280633
v -0.422247 -0.031873 -0.280633
v -0.098030 -0.031873 -0.280633
v -0.098030 0.031106 -0.280633
v 0.098030 0.031106 -0.280633
v 0.098030 -0.031873 -0.280633
v -0.206103 0.031106 -0.280633
v -0.206103 -0.031873 -0.280633
v 0.206103 0.031106 -0.280633
v 0.206103 -0.031873 -0.280633
v 0.468177 1.217368 0.878703
v 0.468177 0.449436 0.878703
v -0.468177 0.449436 0.878703
v -0.468177 1.217368 0.878703
v 0.398067 1.147257 0.982127
v 0.398067 0.519546 0.982127
v -0.398066 0.519546 0.982127
v -0.398066 1.147257 0.982127
v -0.444314 2.168974 -0.409876
v 0.444314 2.168974 -0.409877
v -0.444314 2.246749 -0.095455
v 0.444314 2.246749 -0.095456
v 0.502449 2.246749 -0.095456
v -0.502449 2.246749 -0.095455
v 0.502449 2.168974 -0.409877
v -0.502449 2.168974 -0.409876
v 0.502449 2.116238 -0.396832
v 0.444314 2.116238 -0.396832
v 0.444314 2.194012 -0.082411
v 0.502449 2.194012 -0.082411
v -0.444314 2.194012 -0.082411
v -0.444314 2.116238 -0.396832
v -0.502449 2.194012 -0.082411
v -0.502449 2.116238 -0.396832
v -0.487932 1.971020 -0.333412
v -0.487932 2.161624 -0.333412
v 0.487932 2.161624 -0.333412
v 0.487932 2.161624 -0.135297
v -0.487932 2.161624 -0.135297
v 0.487932 1.971020 -0.333412
v 0.487932 1.971020 -0.135297
v -0.487932 1.971020 -0.135297
vt 0.500000 0.500000
vt 0.625000 0.500000
vt 0.625000 0.750000
vt 0.500000 0.750000
vt 0.125000 0.500000
vt 0.375000 0.500000
vt 0.375000 0.750000
vt 0.125000 0.750000
vt 0.478211 0.500000
vt 0.396789 0.500000
vt 0.396789 0.500000
vt 0.478211 0.500000
vt 0.396789 0.500000
vt 0.396789 0.500000
vt 0.396789 0.964261
vt 0.396789 0.750000
vt 0.396789 0.750000
vt 0.396789 0.964261
vt 0.375000 0.000000
vt 0.500000 0.000000
vt 0.500000 0.250000
vt 0.375000 0.250000
vt 0.488588 0.518719
vt 0.488588 0.731281
vt 0.488588 0.731281
vt 0.488588 0.518719
vt 0.500000 0.750000
vt 0.500000 0.500000
vt 0.478211 0.285739
vt 0.478211 0.500000
vt 0.478211 0.500000
vt 0.478211 0.285739
vt 0.375000 0.500000
vt 0.375000 0.750000
vt 0.793554 0.668554
vt 0.793554 0.581446
vt 0.875000 0.500000
vt 0.875000 0.750000
vt 0.706446 0.581446
vt 0.706446 0.668554
vt 0.576062 0.080271
vt 0.548938 0.080271
vt 0.625000 0.000000
vt 0.576062 0.169729
vt 0.625000 0.250000
vt 0.548938 0.169729
vt 0.548938 0.080271
vt 0.548938 0.169729
vt 0.396789 0.285739
vt 0.375000 1.000000
vt 0.478211 0.964261
vt 0.500000 1.000000
vt 0.478211 0.750000
vt 0.478211 0.750000
vt 0.396789 0.750000
vt 0.478211 0.750000
vt 0.478211 0.964261
vt 0.396789 0.285739
vt 0.396789 0.750000
vt 0.478211 0.750000
vt 0.540346 0.901448
vt 0.584654 0.901448
vt 0.625000 1.000000
vt 0.584654 0.401448
vt 0.584655 0.348552
vt 0.584655 0.848552
vt 0.540346 0.348552
vt 0.540346 0.401448
vt 0.540346 0.848552
vt 0.386412 0.518719
vt 0.386412 0.731281
vt 0.386412 0.518719
vt 0.386412 0.731281
vt 0.584655 0.848552
vt 0.540346 0.848552
vt 0.540346 0.348552
vt 0.540346 0.401448
vt 0.478211 0.285739
vt 0.478211 0.285739
vt 0.478211 0.500000
vt 0.478211 0.500000
vt 0.478211 0.750000
vt 0.478211 0.750000
vt 0.478211 0.964261
vt 0.478211 0.964261
vt 0.478211 0.285739
vt 0.478211 0.500000
vt 0.478211 0.500000
vt 0.478211 0.285739
vt 0.478211 0.750000
vt 0.478211 0.964261
vt 0.478211 0.964261
vt 0.478211 0.750000
vt 0.584655 0.348552
vt 0.584654 0.401448
vt 0.584654 0.901448
vt 0.540346 0.901448
vt 0.706446 0.581446
vt 0.706446 0.668554
vt 0.793554 0.581446
vt 0.793554 0.668554
vt 0.548938 0.080271
vt 0.548938 0.080271
vt 0.548938 0.169729
vt 0.548938 0.169729
vt 0.576062 0.080271
vt 0.576062 0.169729
vt 0.576062 0.169729
vt 0.576062 0.080271
vt 0.548938 0.080271
vt 0.548938 0.169729
vt 0.540346 0.348552
vt 0.540346 0.401448
vt 0.584654 0.401448
vt 0.584655 0.348552
vt 0.540346 0.848552
vt 0.540346 0.901448
vt 0.584654 0.901448
vt 0.584655 0.848552
vt 0.540346 0.348552
vt 0.584655 0.348552
vt 0.584654 0.401448
vt 0.540346 0.401448
vt 0.540346 0.848552
vt 0.584655 0.848552
vt 0.584654 0.901448
vt 0.540346 0.901448
vt 0.540346 0.348552
vt 0.584654 0.348552
vt 0.584654 0.401448
vt 0.540346 0.401448
vt 0.540346 0.401448
vt 0.540346 0.401448
vt 0.540346 0.401448
vt 0.584654 0.848552
vt 0.584654 0.901448
vt 0.540345 0.901448
vt 0.540346 0.901448
vt 0.540346 0.848552
vt 0.540346 0.848552
vt 0.540346 0.901448
vt 0.540346 0.901448
vt 0.540346 0.901448
vt 0.540346 0.348552
vt 0.540346 0.348552
vt 0.540346 0.401448
vt 0.540346 0.848552
vt 0.540346 0.348552
vt 0.540346 0.348552
vt 0.540346 0.848552
vt 0.540346 0.901448
vt 0.540346 0.401448
vt 0.540346 0.901448
vt 0.540346 0.901448
vt 0.540346 0.901448
vt 0.540346 0.848552
vt 0.540346 0.848552
vt 0.540345 0.401448
vt 0.540346 0.348552
vt 0.540346 0.348552
vt 0.540346 0.401448
vt 0.540346 0.901448
vt 0.540346 0.901448
vt 0.540346 0.901448
vt 0.540346 0.848552
vt 0.540346 0.901448
vt 0.540346 0.401448
vt 0.540346 0.848552
vt 0.540346 0.848552
vt 0.540346 0.901448
vt 0.540346 0.848552
vt 0.540346 0.348552
vt 0.540346 0.348552
vt 0.540346 0.348552
vt 0.584654 0.848552
vt 0.584654 0.901448
vt 0.540346 0.401448
vt 0.540346 0.901448
vt 0.540346 0.901448
vt 0.540346 0.348552
vt 0.540346 0.348552
vt 0.584654 0.401448
vt 0.584654 0.348552
vt 0.540346 0.901448
vt 0.540346 0.901448
vt 0.540346 0.348552
vt 0.540346 0.348552
vt 0.540346 0.348552
vt 0.540346 0.348552
vt 0.540346 0.348552
vt 0.540346 0.348552
vn 0.0000 0.0000 1.0000
vn 0.0000 -1.0000 -0.0000
vn -0.0000 0.0000 -1.0000
vn 0.0000 1.0000 0.0000
vn 1.0000 0.0000 -0.0000
vn -1.0000 0.0000 0.0000
vn 0.0000 -0.9707 0.2401
vn -0.0000 0.9707 -0.2401
vn 0.0000 0.2401 0.9707
vn 0.0000 -0.2401 -0.9707
usemtl Skin
s off
f 71/1/1 68/2/1 69/3/1 72/4/1
f 42/5/2 43/6/2 45/7/2 44/8/2
f 13/9/1 14/10/1 62/11/1 61/12/1
f 14/10/2 7/13/2 54/14/2 62/11/2
f 1/15/2 5/16/2 56/17/2 59/18/2
f 44/19/3 65/20/3 70/21/3 42/22/3
f 49/23/4 51/24/4 160/25/4 157/26/4
f 71/1/4 72/4/4 156/27/4 153/28/4
f 28/29/4 48/30/4 53/31/4 57/32/4
f 45/7/2 43/6/2 154/33/2 155/34/2
f 2/35/4 4/36/4 67/37/4 66/38/4
f 4/36/4 8/39/4 68/2/4 67/37/4
f 8/39/4 6/40/4 69/3/4 68/2/4
f 6/40/4 2/35/4 66/38/4 69/3/4
f 17/41/3 9/42/3 65/20/3 66/43/3
f 18/44/3 17/41/3 66/43/3 67/45/3
f 10/46/3 18/44/3 67/45/3 70/21/3
f 9/42/3 10/46/3 70/21/3 65/20/3
f 10/46/1 9/42/1 37/47/1 38/48/1
f 28/29/5 3/49/5 42/22/5 70/21/5
f 3/49/5 7/13/5 43/6/5 42/22/5
f 5/16/6 1/15/6 44/50/6 45/7/6
f 1/15/6 25/51/6 65/52/6 44/50/6
f 25/51/6 47/53/6 72/4/6 65/52/6
f 48/30/5 28/29/5 70/21/5 71/1/5
f 14/10/5 13/9/5 153/28/5 154/33/5
f 16/54/6 15/55/6 155/34/6 156/27/6
f 13/9/5 48/30/5 71/1/5 153/28/5
f 7/13/5 14/10/5 154/33/5 43/6/5
f 47/53/6 16/54/6 156/27/6 72/4/6
f 15/55/6 5/16/6 45/7/6 155/34/6
f 56/17/6 55/56/6 60/57/6 59/18/6
f 54/14/5 53/31/5 61/12/5 62/11/5
f 58/58/5 57/32/5 53/31/5 54/14/5
f 55/56/6 56/17/6 64/59/6 63/60/6
f 25/51/3 1/15/3 59/18/3 60/57/3
f 16/54/4 47/53/4 55/56/4 63/60/4
f 3/49/3 28/29/3 57/32/3 58/58/3
f 15/55/1 16/54/1 63/60/1 64/59/1
f 47/53/4 25/51/4 60/57/4 55/56/4
f 5/16/2 15/55/2 64/59/2 56/17/2
f 7/13/2 3/49/2 58/58/2 54/14/2
f 48/30/4 13/9/4 61/12/4 53/31/4
f 46/61/6 26/62/6 66/63/6 65/52/6
f 19/64/5 27/65/5 67/45/5 68/2/5
f 26/62/6 20/66/6 69/3/6 66/63/6
f 27/65/5 41/67/5 70/21/5 67/45/5
f 11/68/5 19/64/5 68/2/5 71/1/5
f 20/66/6 12/69/6 72/4/6 69/3/6
f 12/69/6 46/61/6 65/52/6 72/4/6
f 41/67/5 11/68/5 71/1/5 70/21/5
f 49/23/1 50/70/1 154/33/1 153/28/1
f 50/70/1 52/71/1 155/34/1 154/33/1
f 52/71/1 51/24/1 156/27/1 155/34/1
f 51/24/1 49/23/1 153/28/1 156/27/1
f 158/72/1 157/26/1 160/25/1 159/73/1
f 52/71/2 50/70/2 158/72/2 159/73/2
f 51/24/6 52/71/6 159/73/6 160/25/6
f 50/70/5 49/23/5 157/26/5 158/72/5
usemtl Eyes
f 12/69/1 20/66/1 181/74/1 184/75/1
f 11/68/2 41/67/2 182/76/2 183/77/2
f 162/78/7 167/79/7 165/80/7 164/81/7
f 163/82/7 166/83/7 168/84/7 161/85/7
f 170/86/8 171/87/8 172/88/8 169/89/8
f 173/90/8 174/91/8 176/92/8 175/93/8
f 168/84/5 166/83/5 175/93/5 176/92/5
f 163/82/6 161/85/6 174/91/6 173/90/6
f 167/79/9 162/78/9 170/86/9 169/89/9
f 166/83/10 163/82/10 173/90/10 175/93/10
f 165/80/6 167/79/6 169/89/6 172/88/6
f 162/78/5 164/81/5 171/87/5 170/86/5
f 164/81/10 165/80/10 172/88/10 171/87/10
f 161/85/9 168/84/9 176/92/9 174/91/9
f 182/76/5 179/94/5 180/95/5 183/77/5
f 184/75/6 181/74/6 178/96/6 177/97/6
f 41/67/3 27/65/3 179/94/3 182/76/3
f 27/65/4 19/64/4 180/95/4 179/94/4
f 46/61/2 12/69/2 184/75/2 177/97/2
f 19/64/1 11/68/1 183/77/1 180/95/1
f 20/66/4 26/62/4 178/96/4 181/74/4
f 26/62/3 46/61/3 177/97/3 178/96/3
usemtl Red
f 6/40/1 8/39/1 23/98/1 24/99/1
f 23/98/4 22/100/4 21/101/4 24/99/4
f 4/36/3 2/35/3 21/101/3 22/100/3
f 2/35/6 6/40/6 24/99/6 21/101/6
f 8/39/5 4/36/5 22/100/5 23/98/5
f 9/42/6 36/102/6 39/103/6 37/47/6
f 38/48/2 37/47/2 39/103/2 40/104/2
f 36/102/3 35/105/3 40/104/3 39/103/3
f 35/105/5 10/46/5 38/48/5 40/104/5
usemtl Beak
f 34/106/4 33/107/4 31/108/4 30/109/4
f 29/110/3 30/109/3 31/108/3 32/111/3
f 33/107/5 35/105/5 32/111/5 31/108/5
f 36/102/6 34/106/6 30/109/6 29/110/6
f 35/105/2 36/102/2 29/110/2 32/111/2
f 9/42/6 17/41/6 34/106/6 36/102/6
f 18/44/5 10/46/5 35/105/5 33/107/5
f 17/41/4 18/44/4 33/107/4 34/106/4
f 79/112/6 73/113/6 75/114/6 78/115/6
f 74/116/5 80/117/5 77/118/5 76/119/5
f 86/120/5 83/121/5 84/122/5 87/123/5
f 88/124/6 85/125/6 82/126/6 81/127/6
f 123/128/1 122/129/1 83/121/1 86/120/1
f 122/129/2 126/130/2 84/122/2 83/121/2
f 127/131/2 73/113/2 92/132/2 131/133/2
f 126/130/3 128/134/3 87/123/3 84/122/3
f 111/135/2 110/136/2 82/126/2 85/125/2
f 110/136/1 107/137/1 81/127/1 82/126/1
f 88/124/2 81/127/2 94/138/2 93/139/2
f 106/140/3 111/135/3 85/125/3 88/124/3
f 102/141/6 94/138/6 146/142/6 145/143/6
f 92/132/6 91/144/6 99/145/6 100/146/6
f 106/140/2 88/124/2 93/139/2 114/147/2
f 123/128/2 86/120/2 95/148/2 129/149/2
f 80/117/2 74/116/2 89/150/2 90/151/2
f 86/120/2 87/123/2 96/152/2 95/148/2
f 108/153/2 80/117/2 90/151/2 116/154/2
f 73/113/2 79/112/2 91/144/2 92/132/2
f 119/155/4 118/156/4 101/157/4 102/141/4
f 136/158/4 133/159/4 103/160/4 104/161/4
f 115/162/5 119/155/5 150/163/5 149/164/5
f 93/139/6 94/138/6 102/141/6 101/157/6
f 90/151/5 89/150/5 97/165/5 98/166/5
f 131/133/3 92/132/3 100/146/3 135/167/3
f 114/147/3 93/139/3 101/157/3 118/156/3
f 95/148/5 96/152/5 104/161/5 103/160/5
f 89/150/3 113/168/3 117/169/3 97/165/3
f 113/168/3 114/147/3 118/156/3 117/169/3
f 98/166/4 97/165/4 117/169/4 120/170/4
f 120/170/4 117/169/4 118/156/4 119/155/4
f 81/127/2 107/137/2 115/162/2 94/138/2
f 107/137/2 108/153/2 116/154/2 115/162/2
f 74/116/2 105/171/2 113/168/2 89/150/2
f 105/171/2 106/140/2 114/147/2 113/168/2
f 91/144/2 130/172/2 137/173/2 138/174/2
f 115/162/1 116/154/1 120/170/1 119/155/1
f 74/116/3 76/119/3 112/175/3 105/171/3
f 105/171/3 112/175/3 111/135/3 106/140/3
f 77/118/1 80/117/1 108/153/1 109/176/1
f 109/176/1 108/153/1 107/137/1 110/136/1
f 76/119/2 77/118/2 109/176/2 112/175/2
f 112/175/2 109/176/2 110/136/2 111/135/2
f 96/152/3 132/177/3 136/158/3 104/161/3
f 132/177/3 131/133/3 135/167/3 136/158/3
f 90/151/5 98/166/5 144/178/5 140/179/5
f 130/172/1 129/149/1 133/159/1 134/180/1
f 100/146/4 99/145/4 134/180/4 135/167/4
f 135/167/4 134/180/4 133/159/4 136/158/4
f 79/112/2 124/181/2 130/172/2 91/144/2
f 124/181/2 123/128/2 129/149/2 130/172/2
f 75/114/3 73/113/3 127/131/3 125/182/3
f 125/182/3 127/131/3 128/134/3 126/130/3
f 87/123/2 128/134/2 132/177/2 96/152/2
f 128/134/2 127/131/2 131/133/2 132/177/2
f 78/115/2 75/114/2 125/182/2 121/183/2
f 121/183/2 125/182/2 126/130/2 122/129/2
f 79/112/1 78/115/1 121/183/1 124/181/1
f 124/181/1 121/183/1 122/129/1 123/128/1
f 139/184/1 140/179/1 144/178/1 143/185/1
f 151/186/1 147/187/1 148/188/1 152/189/1
f 146/142/1 149/164/1 150/163/1 145/143/1
f 138/174/1 137/173/1 141/190/1 142/191/1
f 94/138/2 115/162/2 149/164/2 146/142/2
f 134/180/4 99/145/4 142/191/4 141/190/4
f 120/170/6 116/154/6 139/184/6 143/185/6
f 129/149/2 95/148/2 147/187/2 151/186/2
f 95/148/5 103/160/5 148/188/5 147/187/5
f 116/154/2 90/151/2 140/179/2 139/184/2
f 98/166/4 120/170/4 143/185/4 144/178/4
f 130/172/5 134/180/5 141/190/5 137/173/5
f 133/159/6 129/149/6 151/186/6 152/189/6
f 119/155/4 102/141/4 145/143/4 150/163/4
f 99/145/6 91/144/6 138/174/6 142/191/6
f 103/160/4 133/159/4 152/189/4 148/188/4
