# Blender v2.91.2 OBJ File: 'newDuck (2).blend'
# www.blender.org
mtllib duck.mtl
o Cube
v 1.000000 2.689057 -1.000000
v 1.000000 0.286026 -1.000000
v 1.000000 2.689057 1.000000
v 1.000000 0.286026 1.000000
v -1.000000 2.689057 -1.000000
v -1.000000 0.286026 -1.000000
v -1.000000 2.689057 1.000000
v -1.000000 0.286026 1.000000
v 1.159649 2.689057 -1.159649
v 1.159649 2.689057 1.159649
v -1.159649 2.689057 -1.159649
v -1.159649 2.689057 1.159649
v 1.159649 4.641448 1.159649
v -1.159649 4.641448 1.159649
v 1.159649 4.641448 -1.159649
v -1.159649 4.641448 -1.159649
v 0.777895 2.959757 -1.159649
v -0.777895 2.959757 -1.159649
v 0.777895 3.421721 -1.159649
v -0.777895 3.421721 -1.159649
v -0.777895 2.959757 -2.090064
v 0.777895 2.959757 -2.090064
v -0.777895 3.421721 -2.090064
v 0.777895 3.421721 -2.090064
v -0.777895 4.223740 -1.112828
v 0.777895 4.223740 -1.112828
v -0.777895 4.399791 -1.112828
v 0.777895 4.399791 -1.112828
v -0.777895 4.223740 -1.250255
v 0.777895 4.223740 -1.250255
v -0.777895 4.399791 -1.250255
v 0.777895 4.399791 -1.250255
v 0.000000 4.062304 -1.112828
v 0.000000 4.238355 -1.112828
v 0.000000 4.062304 -1.250255
v 0.000000 4.238355 -1.250255
v -0.577201 3.530903 -1.213505
v 0.577201 3.530903 -1.213505
v -0.577201 4.138309 -1.213505
v 0.577201 4.138309 -1.213505
v -0.192400 3.530903 -1.213505
v 0.192400 3.530903 -1.213505
v -0.192400 4.138309 -1.213505
v 0.192400 4.138309 -1.213505
v 0.192400 3.530903 -1.286956
v 0.577201 3.530903 -1.286956
v 0.192400 4.138309 -1.286956
v 0.577201 4.138309 -1.286956
v -0.577201 4.138309 -1.286956
v -0.577201 3.530903 -1.286956
v -0.192400 3.530903 -1.286956
v -0.192400 4.138309 -1.286956
v 0.776478 0.277887 -0.607559
v 0.776478 0.277887 0.607559
v -0.776478 0.277887 -0.607559
v -0.776478 0.277887 0.607559
v 0.258826 0.277887 -0.607559
v -0.258826 0.277887 -0.607559
v -0.258826 0.277887 0.607559
v 0.258826 0.277887 0.607559
v -0.776478 0.104774 -0.607559
v -0.776478 0.104774 0.607559
v -0.258826 0.104774 -0.607559
v 0.258826 0.104774 0.607559
v 0.776478 0.104774 0.607559
v 0.776478 0.104774 -0.607559
v 0.258826 0.104774 -0.607559
v -0.258826 0.104774 0.607559
v -0.189233 0.104774 -0.770920
v -0.846071 0.104774 -0.770920
v -0.846071 0.104774 0.770920
v 0.189233 0.104774 0.770920
v 0.846071 0.104774 0.770920
v 0.846071 0.104774 -0.770920
v 0.189233 0.104774 -0.770920
v -0.189233 0.104774 0.770920
v -0.189233 -0.191042 -0.770920
v -0.846071 -0.191042 -0.770920
v -0.846071 -0.191042 0.770920
v 0.189233 -0.191042 0.770920
v 0.846071 -0.191042 0.770920
v 0.846071 -0.191042 -0.770920
v 0.189233 -0.191042 -0.770920
v -0.189233 -0.191042 0.770920
v 1.000000 2.440886 -0.494309
v 1.000000 0.534197 -0.494309
v 1.000000 2.440886 0.494309
v 1.000000 0.534197 0.494309
v -1.000000 2.440886 -0.494309
v -1.000000 0.534197 -0.494309
v -1.000000 2.440886 0.494309
v -1.000000 0.534197 0.494309
v -1.175407 0.534197 -0.494309
v -1.175407 0.534197 0.494309
v 1.175407 2.440886 -0.494309
v 1.175407 0.534197 -0.494309
v -1.175407 2.440886 0.494309
v 1.175407 2.440886 0.494309
v 1.175407 0.534197 0.494309
v -1.175407 2.440886 -0.494309
vt 0.625000 0.500000
vt 0.875000 0.500000
vt 0.875000 0.750000
vt 0.625000 0.750000
vt 0.375000 0.750000
vt 0.625000 1.000000
vt 0.375000 1.000000
vt 0.375000 0.000000
vt 0.625000 0.000000
vt 0.625000 0.250000
vt 0.375000 0.250000
vt 0.125000 0.500000
vt 0.375000 0.500000
vt 0.125000 0.750000
vt 0.625000 0.500000
vt 0.625000 0.750000
vt 0.875000 0.750000
vt 0.875000 0.500000
vt 0.625000 0.500000
vt 0.875000 0.500000
vt 0.875000 0.750000
vt 0.625000 0.750000
vt 0.375000 0.000000
vt 0.375000 0.250000
vt 0.625000 0.250000
vt 0.625000 0.000000
vt 0.375000 0.500000
vt 0.375000 0.750000
vt 0.625000 0.750000
vt 0.625000 0.500000
vt 0.375000 0.000000
vt 0.625000 0.000000
vt 0.625000 0.250000
vt 0.375000 0.250000
vt 0.375000 0.500000
vt 0.625000 0.500000
vt 0.625000 0.750000
vt 0.375000 0.750000
vt 0.875000 0.500000
vt 0.875000 0.500000
vt 0.625000 0.500000
vt 0.625000 0.500000
vt 0.625000 0.500000
vt 0.625000 0.500000
vt 0.875000 0.500000
vt 0.875000 0.500000
vt 0.291667 0.500000
vt 0.291667 0.750000
vt 0.375000 0.750000
vt 0.375000 0.500000
vt 0.125000 0.500000
vt 0.125000 0.750000
vt 0.208333 0.750000
vt 0.208333 0.500000
vt 0.291667 0.750000
vt 0.291667 0.500000
vt 0.291667 0.500000
vt 0.291667 0.750000
vt 0.375000 0.750000
vt 0.375000 0.750000
vt 0.375000 0.500000
vt 0.125000 0.500000
vt 0.125000 0.750000
vt 0.208333 0.500000
vt 0.208333 0.750000
vt 0.375000 0.500000
vt 0.375000 0.500000
vt 0.291667 0.500000
vt 0.208333 0.500000
vt 0.208333 0.750000
vt 0.208333 0.750000
vt 0.208333 0.500000
vt 0.125000 0.750000
vt 0.125000 0.500000
vt 0.375000 0.750000
vt 0.291667 0.750000
vt 0.125000 0.500000
vt 0.125000 0.750000
vt 0.750000 0.500000
vt 0.750000 0.500000
vt 0.875000 0.500000
vt 0.875000 0.500000
vt 0.750000 0.500000
vt 0.875000 0.500000
vt 0.875000 0.500000
vt 0.750000 0.500000
vt 0.625000 0.500000
vt 0.625000 0.500000
vt 0.625000 0.500000
vt 0.625000 0.500000
vt 0.791667 0.500000
vt 0.791667 0.500000
vt 0.875000 0.500000
vt 0.875000 0.500000
vt 0.625000 0.500000
vt 0.625000 0.500000
vt 0.708333 0.500000
vt 0.708333 0.500000
vt 0.791667 0.500000
vt 0.875000 0.500000
vt 0.875000 0.500000
vt 0.791667 0.500000
vt 0.625000 0.500000
vt 0.708333 0.500000
vt 0.708333 0.500000
vt 0.625000 0.500000
vn 0.5773 0.5773 -0.5773
vn -0.5773 0.5773 -0.5773
vn -0.5773 0.5773 0.5773
vn 0.5773 0.5773 0.5773
vn 0.5773 -0.5773 0.5773
vn -0.5773 -0.5773 0.5773
vn -0.5773 -0.5773 -0.5773
vn 0.5773 -0.5773 -0.5773
vn -0.7071 0.7071 0.0000
vn 0.7071 0.7071 0.0000
vn 0.7071 -0.7071 0.0000
vn -0.7071 -0.7071 0.0000
vn -0.3015 0.9045 0.3015
vn -0.3015 0.9045 -0.3015
vn 0.3015 0.9045 0.3015
vn 0.3015 0.9045 -0.3015
vn 0.0000 -0.7476 0.6641
vn 0.0000 0.6547 0.7558
vn -0.5198 0.6387 0.5673
vn -0.6269 -0.5101 0.5889
vn 0.0000 -0.7476 -0.6641
vn -0.6269 -0.5101 -0.5889
vn -0.5198 0.6387 -0.5673
vn 0.0000 0.6547 -0.7558
vn 0.5198 0.6387 0.5673
vn 0.6269 -0.5101 0.5889
vn 0.6269 -0.5101 -0.5889
vn 0.5198 0.6387 -0.5673
g Cube_Cube_white
usemtl white
s 1
f 1/1/1 5/2/2 7/3/3 3/4/4
f 4/5/5 3/4/4 7/6/3 8/7/6
f 8/8/6 7/9/3 5/10/2 6/11/7
f 6/12/7 2/13/8 4/5/5 8/14/6
f 2/13/8 1/1/1 3/4/4 4/5/5
f 6/11/7 5/10/2 1/1/1 2/13/8
f 9/15/8 10/16/5 12/17/6 11/18/7
f 15/19/1 16/20/2 14/21/3 13/22/4
f 11/18/7 12/17/6 14/21/3 16/20/2
f 12/17/6 10/16/5 13/22/4 14/21/3
f 9/15/8 11/18/7 16/20/2 15/19/1
f 10/16/5 9/15/8 15/19/1 13/22/4
f 92/23/5 90/24/8 89/25/1 91/26/4
f 86/27/7 88/28/6 87/29/3 85/30/2
f 94/31/6 97/32/3 100/33/2 93/34/7
f 96/35/8 95/36/1 98/37/4 99/38/5
f 87/29/3 88/28/6 99/38/5 98/37/4
f 86/27/7 85/30/2 95/36/1 96/35/8
f 91/26/4 89/25/1 100/33/2 97/32/3
f 89/25/1 90/24/8 93/34/7 100/33/2
f 92/23/5 91/26/4 97/32/3 94/31/6
f 90/24/8 92/23/5 94/31/6 93/34/7
f 88/28/6 86/27/7 96/35/8 99/38/5
f 85/30/2 87/29/3 98/37/4 95/36/1
g Cube_Cube_Material
usemtl Material
f 23/39/2 20/40/9 19/41/10 24/42/1
f 19/41/10 17/43/11 22/44/8 24/42/1
f 18/45/12 20/40/9 23/39/2 21/46/7
f 21/46/7 23/39/2 24/42/1 22/44/8
f 21/46/7 22/44/8 17/43/11 18/45/12
f 57/47/2 60/48/3 54/49/4 53/50/1
f 55/51/2 56/52/3 59/53/4 58/54/1
f 64/55/13 67/56/14 75/57/2 72/58/3
f 65/59/15 64/55/13 72/58/3 73/60/4
f 57/47/2 53/50/1 66/61/16 67/56/14
f 54/49/4 60/48/3 64/55/13 65/59/15
f 56/52/3 55/51/2 61/62/14 62/63/13
f 60/48/3 57/47/2 67/56/14 64/55/13
f 53/50/1 54/49/4 65/59/15 66/61/16
f 55/51/2 58/54/1 63/64/16 61/62/14
f 58/54/1 59/53/4 68/65/15 63/64/16
f 59/53/4 56/52/3 62/63/13 68/65/15
f 75/57/2 74/66/1 82/67/8 83/68/7
f 69/69/1 76/70/4 84/71/5 77/72/8
f 68/65/15 62/63/13 71/73/3 76/70/4
f 66/61/16 65/59/15 73/60/4 74/66/1
f 62/63/13 61/62/14 70/74/2 71/73/3
f 61/62/14 63/64/16 69/69/1 70/74/2
f 63/64/16 68/65/15 76/70/4 69/69/1
f 67/56/14 66/61/16 74/66/1 75/57/2
f 83/68/7 82/67/8 81/75/5 80/76/6
f 78/77/7 77/72/8 84/71/5 79/78/6
f 73/60/4 72/58/3 80/76/6 81/75/5
f 70/74/2 69/69/1 77/72/8 78/77/7
f 72/58/3 75/57/2 83/68/7 80/76/6
f 76/70/4 71/73/3 79/78/6 84/71/5
f 74/66/1 73/60/4 81/75/5 82/67/8
f 71/73/3 70/74/2 78/77/7 79/78/6
g Cube_Cube_black
usemtl black
f 33/79/17 34/80/18 27/81/19 25/82/20
f 35/83/21 29/84/22 31/85/23 36/86/24
f 25/82/20 27/81/19 31/85/23 29/84/22
f 33/79/17 25/82/20 29/84/22 35/83/21
f 28/87/25 26/88/26 30/89/27 32/90/28
f 34/80/18 28/87/25 32/90/28 36/86/24
f 27/81/19 34/80/18 36/86/24 31/85/23
f 26/88/26 33/79/17 35/83/21 30/89/27
f 30/89/27 35/83/21 36/86/24 32/90/28
f 26/88/26 28/87/25 34/80/18 33/79/17
f 41/91/5 43/92/4 39/93/3 37/94/6
f 38/95/5 40/96/4 44/97/3 42/98/6
f 51/99/8 50/100/7 49/101/2 52/102/1
f 46/103/8 45/104/7 47/105/2 48/106/1
f 42/98/6 44/97/3 47/105/2 45/104/7
f 41/91/5 37/94/6 50/100/7 51/99/8
f 37/94/6 39/93/3 49/101/2 50/100/7
f 38/95/5 42/98/6 45/104/7 46/103/8
f 43/92/4 41/91/5 51/99/8 52/102/1
f 39/93/3 43/92/4 52/102/1 49/101/2
f 40/96/4 38/95/5 46/103/8 48/106/1
f 44/97/3 40/96/4 48/106/1 47/105/2
