# Blender v2.91.2 OBJ File: 'log (2).blend'
# www.blender.org
mtllib log.mtl
o Cylinder
v -3.359909 -0.274183 -0.855150
v 3.359909 -0.203624 -0.635083
v -3.359909 -0.898024 -0.003493
v 3.359909 -0.666923 -0.002594
v -3.359909 -0.280826 0.852992
v 3.359909 -0.208557 0.633480
v -3.359909 0.724464 0.530671
v 3.359909 0.538027 0.394106
v -3.359909 0.728569 -0.525019
v 3.359909 0.541077 -0.389909
v 2.843208 -0.244427 -0.762344
v 2.843208 -0.800564 -0.003114
v 2.843208 -0.250349 0.760419
v 2.843208 0.645840 0.473078
v 2.843208 0.649500 -0.468041
v -1.428294 -0.800564 -0.003114
v -1.428294 -0.250349 0.760419
v -1.428294 0.645840 0.473078
v -1.428294 0.649500 -0.468041
v -1.428294 -0.244427 -0.762344
v 3.359909 -0.854247 -0.003322
v 3.359909 -0.260817 -0.813463
v 3.359909 -0.267137 0.811410
v 3.359909 0.689147 0.504801
v 3.359909 0.693053 -0.499426
v -3.310423 -0.666922 -0.002597
v -3.310423 -0.203622 -0.635086
v -3.310423 -0.208556 0.633476
v -3.310423 0.538028 0.394102
v -3.310423 0.541078 -0.389913
vt 1.000000 0.961554
vt 1.000000 1.000000
vt 0.800000 1.000000
vt 0.800000 0.961554
vt 0.600000 1.000000
vt 0.600000 0.961554
vt 0.400000 1.000000
vt 0.400000 0.961554
vt 0.071799 0.307901
vt 0.139866 0.098413
vt 0.139866 0.098413
vt 0.071799 0.307901
vt 0.200000 1.000000
vt 0.200000 0.961554
vt 0.000000 1.000000
vt 0.000000 0.961554
vt 0.400000 0.500000
vt 0.200000 0.500000
vt 0.200000 0.643725
vt 0.000000 0.643725
vt 0.400000 0.643725
vt 0.600000 0.643725
vt 0.800000 0.643725
vt 1.000000 0.643725
vt 1.000000 0.500000
vt 0.800000 0.500000
vt 0.600000 0.500000
vt 0.000000 0.500000
vt 0.250000 0.437372
vt 0.428201 0.307901
vt 0.478254 0.324164
vt 0.250000 0.490000
vt 0.360134 0.098413
vt 0.391068 0.055836
vt 0.108932 0.055836
vt 0.021746 0.324164
vt 0.250000 0.437372
vt 0.428201 0.307901
vt 0.360134 0.098413
vn -0.0528 -0.3049 -0.9509
vn 0.5568 -0.2536 -0.7910
vn 0.5568 -0.8306 -0.0032
vn -0.0528 -0.9986 -0.0039
vn 0.5568 -0.2597 0.7890
vn -0.0528 -0.3123 0.9485
vn 0.5568 0.6701 0.4908
vn -0.0528 0.8056 0.5901
vn 0.8658 -0.4059 0.2925
vn 0.8658 -0.4036 -0.2956
vn -0.7747 -0.5101 -0.3737
vn -0.7747 -0.5130 0.3697
vn 0.5568 0.6739 -0.4856
vn -0.0528 0.8101 -0.5838
vn -0.6362 0.6224 0.4559
vn -0.6362 0.6259 -0.4510
vn 0.0254 0.8110 -0.5844
vn 0.0254 -0.3052 -0.9519
vn 0.0254 0.8065 0.5907
vn 0.0254 -0.3126 0.9495
vn 0.0254 -0.9997 -0.0039
vn -0.6362 -0.2355 -0.7346
vn -0.6362 -0.7715 -0.0030
vn -0.6362 -0.2412 0.7328
vn 0.8658 0.1527 0.4764
vn 0.8658 0.5003 0.0019
vn 0.8658 0.1564 -0.4752
vn -0.7747 0.1931 0.6022
vn -0.7747 0.6323 0.0024
vn -0.7747 0.1977 -0.6006
g Cylinder_Cylinder_Log
usemtl Log
s 1
f 11/1/1 22/2/2 21/3/3 12/4/4
f 12/4/4 21/3/3 23/5/5 13/6/6
f 13/6/6 23/5/5 24/7/7 14/8/8
f 10/9/9 8/10/10 29/11/11 30/12/12
f 14/8/8 24/7/7 25/13/13 15/14/14
f 15/14/14 25/13/13 22/15/2 11/16/1
f 7/17/15 9/18/16 30/12/12 29/11/11
f 19/19/17 15/14/14 11/16/1 20/20/18
f 18/21/19 14/8/8 15/14/14 19/19/17
f 17/22/20 13/6/6 14/8/8 18/21/19
f 16/23/21 12/4/4 13/6/6 17/22/20
f 20/24/18 11/1/1 12/4/4 16/23/21
f 1/25/22 20/24/18 16/23/21 3/26/23
f 3/26/23 16/23/21 17/22/20 5/27/24
f 5/27/24 17/22/20 18/21/19 7/17/15
f 7/17/15 18/21/19 19/19/17 9/18/16
f 9/18/16 19/19/17 20/20/18 1/28/22
f 2/29/25 4/30/26 21/31/3 22/32/2
f 4/30/26 6/33/27 23/34/5 21/31/3
f 6/33/27 8/10/10 24/35/7 23/34/5
f 8/10/10 10/9/9 25/36/13 24/35/7
f 10/9/9 2/29/25 22/32/2 25/36/13
f 9/18/16 1/28/22 27/37/28 30/12/12
f 6/33/27 4/30/26 26/38/29 28/39/30
f 2/29/25 10/9/9 30/12/12 27/37/28
f 8/10/10 6/33/27 28/39/30 29/11/11
f 4/30/26 2/29/25 27/37/28 26/38/29
f 1/28/22 3/26/23 26/38/29 27/37/28
f 3/26/23 5/27/24 28/39/30 26/38/29
f 5/27/24 7/17/15 29/11/11 28/39/30
