# Blender v2.91.2 OBJ File: 'lowpolycar.blend'
# www.blender.org
mtllib lowpolycar.mtl
o Cube
v 1.257092 2.842203 -1.155393
v 2.017746 0.454775 -1.222196
v 1.257092 2.842203 1.155393
v 2.017746 0.454775 1.222196
v -1.199214 2.856005 -1.222196
v -1.804973 0.454775 -1.222196
v -1.199214 2.856005 1.222196
v -1.804973 0.454775 1.222196
v 1.982851 1.657449 -1.155393
v -1.729471 2.067892 1.222196
v 1.982851 1.657449 1.155393
v -1.729471 2.067892 -1.222196
v 3.142006 1.600484 -1.222196
v 3.142006 0.454775 -1.222196
v 3.142006 1.600484 1.222196
v 3.142006 0.454775 1.222196
v -0.712691 1.256935 -1.274269
v -0.712691 1.256935 1.274269
v -0.055915 0.779760 -1.274269
v -0.055915 0.779760 1.274269
v -0.306781 0.007674 -1.274269
v -0.306781 0.007673 1.274269
v -1.118601 0.007674 -1.274269
v -1.118601 0.007674 1.274269
v -1.369467 0.779760 -1.274269
v -1.369467 0.779760 1.274269
v 1.739505 1.256935 -1.274269
v 1.739505 1.256935 1.274269
v 2.396281 0.779760 -1.274269
v 2.396281 0.779760 1.274269
v 2.145415 0.007674 -1.274269
v 2.145415 0.007673 1.274269
v 1.333595 0.007674 -1.274269
v 1.333595 0.007674 1.274269
v 1.082729 0.779760 -1.274269
v 1.082729 0.779760 1.274269
v 1.198020 2.856005 -1.222196
v 1.198020 2.856005 1.222196
v 1.934768 1.653310 -1.222196
v 1.934768 1.653310 1.222196
v 1.233536 2.827773 -1.155393
v 1.233536 2.827773 1.155393
v 1.959295 1.643019 -1.155393
v 1.959295 1.643019 1.155393
v -1.790074 2.055140 1.195507
v -1.237095 2.877024 1.195507
v 1.222196 2.899168 1.222196
v -1.237095 2.877024 -1.195507
v 1.222196 2.899168 -1.222196
v 2.017746 1.600484 -1.222196
v 2.017746 1.600484 1.222196
v -1.790074 2.055140 -1.195507
v -1.729471 2.067892 1.198709
v -1.199214 2.856005 1.198709
v 1.198020 2.856005 1.198709
v -1.199214 2.856005 -1.198709
v 1.198020 2.856005 -1.198709
v 1.934768 1.653310 -1.198709
v 1.934768 1.653310 1.198709
v -1.729471 2.067892 -1.198709
v -1.804973 2.032996 1.222196
v -1.222196 2.899168 1.222196
v -1.222196 2.899168 -1.222196
v -1.804973 2.032996 -1.222196
v -1.770304 2.041839 1.195507
v -1.217325 2.863722 1.195507
v -1.217325 2.863722 -1.195507
v -1.770304 2.041839 -1.195507
v 2.835574 1.005802 -1.184536
v 2.835574 1.005802 1.184536
v 3.130023 1.375017 -1.184536
v 3.130023 1.005802 -1.184536
v 3.130023 1.375017 1.184536
v 3.130023 1.005802 1.184536
v 2.835574 1.375017 -1.184536
v 2.835574 1.375017 1.184536
v 3.130023 1.005802 0.394845
v 3.130023 1.005802 -0.394845
v 3.130023 1.375017 -0.394845
v 3.130023 1.375017 0.394845
v 2.857165 1.383103 -1.236418
v 2.857165 0.997716 -1.236418
v 2.857165 1.383103 1.236418
v 2.857165 0.997716 1.236418
v 3.164510 1.383103 -1.236418
v 3.164510 0.997716 -1.236418
v 3.164510 1.383103 1.236418
v 3.164510 0.997716 1.236418
v 3.164510 0.997716 -0.412139
v 3.164510 1.383103 0.412139
v 3.164510 0.997716 0.412139
v 3.164510 1.383103 -0.412139
v -1.487001 1.375017 -1.184536
v -1.487001 1.375017 1.184536
v -1.781449 1.005802 -1.184536
v -1.781449 1.375017 -1.184536
v -1.781449 1.005802 1.184536
v -1.781449 1.375017 1.184536
v -1.487001 1.005802 -1.184536
v -1.487001 1.005802 1.184536
v -1.781449 1.375017 0.394845
v -1.781449 1.375017 -0.394845
v -1.781449 1.005802 -0.394845
v -1.781449 1.005802 0.394845
v -1.508591 0.997717 -1.236418
v -1.508591 1.383103 -1.236418
v -1.508591 0.997717 1.236418
v -1.508591 1.383103 1.236418
v -1.815936 0.997717 -1.236418
v -1.815936 1.383103 -1.236418
v -1.815936 0.997717 1.236418
v -1.815936 1.383103 1.236418
v -1.815936 1.383103 -0.412139
v -1.815936 0.997717 0.412139
v -1.815936 1.383103 0.412139
v -1.815936 0.997717 -0.412139
vt 0.625000 0.500000
vt 0.875000 0.500000
vt 0.875000 0.750000
vt 0.625000 0.750000
vt 0.540482 0.253389
vt 0.620861 0.254258
vt 0.620861 0.254258
vt 0.540482 0.253389
vt 0.538677 0.247270
vt 0.538677 0.002730
vt 0.538677 0.002730
vt 0.538677 0.247270
vt 0.125000 0.500000
vt 0.375000 0.500000
vt 0.375000 0.750000
vt 0.125000 0.750000
vt 0.621114 0.743168
vt 0.540298 0.743168
vt 0.540298 0.743168
vt 0.621114 0.743168
vt 0.540482 0.996611
vt 0.539629 0.753684
vt 0.539629 0.753684
vt 0.540482 0.996611
vt 0.375000 0.250000
vt 0.536412 0.250000
vt 0.536412 0.500000
vt 0.375000 0.500000
vt 0.375000 0.750000
vt 0.375000 0.000000
vt 0.536412 0.000000
vt 0.536412 0.750000
vt 0.536412 1.000000
vt 0.375000 1.000000
vt 0.536412 0.500000
vt 0.536412 0.750000
vt 0.621114 0.506832
vt 0.540298 0.506832
vt 0.621114 0.506832
vt 0.540298 0.506832
vt 0.620861 0.995742
vt 0.625000 1.000000
vt 0.621852 0.754390
vt 0.621852 0.495610
vt 0.625000 0.250000
vt 0.539629 0.496316
vt 0.539629 0.496316
vt 0.621852 0.495610
vt 0.620861 0.995742
vt 0.621852 0.754390
vt 0.622735 0.002730
vt 0.625000 0.000000
vt 0.622735 0.247270
vt 0.622735 0.247270
vt 0.622735 0.002730
vt 0.375000 0.666667
vt 0.375000 0.750000
vt 0.536412 0.750000
vt 0.536412 0.666667
vt 0.536412 0.750000
vt 0.375000 0.750000
vt 0.375000 0.500000
vt 0.375000 0.500000
vt 0.536412 0.500000
vt 0.536412 0.500000
vt 0.375000 0.583333
vt 0.536412 0.583333
vt 0.375000 0.666667
vt 0.536412 0.666667
vt 0.536412 0.750000
vt 0.375000 0.750000
vt 0.536412 0.750000
vt 0.375000 0.750000
vt 0.375000 0.500000
vt 0.536412 0.500000
vt 0.536412 0.500000
vt 0.375000 0.500000
vt 0.536412 0.583333
vt 0.375000 0.583333
vt 1.000000 0.500000
vt 1.000000 1.000000
vt 0.800000 1.000000
vt 0.800000 0.500000
vt 0.600000 1.000000
vt 0.600000 0.500000
vt 0.400000 1.000000
vt 0.400000 0.500000
vt 0.478254 0.324164
vt 0.250000 0.490000
vt 0.021746 0.324164
vt 0.108932 0.055836
vt 0.391068 0.055836
vt 0.200000 1.000000
vt 0.200000 0.500000
vt 0.000000 1.000000
vt 0.000000 0.500000
vt 0.750000 0.490000
vt 0.978254 0.324164
vt 0.891068 0.055836
vt 0.608932 0.055836
vt 0.521746 0.324164
vt 1.000000 0.500000
vt 1.000000 1.000000
vt 0.800000 1.000000
vt 0.800000 0.500000
vt 0.600000 1.000000
vt 0.600000 0.500000
vt 0.400000 1.000000
vt 0.400000 0.500000
vt 0.478254 0.324164
vt 0.250000 0.490000
vt 0.021746 0.324164
vt 0.108932 0.055836
vt 0.391068 0.055836
vt 0.200000 1.000000
vt 0.200000 0.500000
vt 0.000000 1.000000
vt 0.000000 0.500000
vt 0.750000 0.490000
vt 0.978254 0.324164
vt 0.891068 0.055836
vt 0.608932 0.055836
vt 0.521746 0.324164
vt 0.375000 0.666667
vt 0.375000 0.750000
vt 0.536412 0.750000
vt 0.536412 0.666667
vt 0.536412 0.750000
vt 0.375000 0.750000
vt 0.375000 0.500000
vt 0.375000 0.500000
vt 0.536412 0.500000
vt 0.536412 0.500000
vt 0.375000 0.583333
vt 0.536412 0.583333
vt 0.375000 0.666667
vt 0.536412 0.666667
vt 0.536412 0.750000
vt 0.375000 0.750000
vt 0.536412 0.750000
vt 0.375000 0.750000
vt 0.375000 0.500000
vt 0.536412 0.500000
vt 0.536412 0.500000
vt 0.375000 0.500000
vt 0.536412 0.583333
vt 0.375000 0.583333
vn 0.3865 0.6901 -0.6119
vn -0.3706 0.6960 -0.6150
vn -0.3706 0.6960 0.6150
vn 0.3865 0.6901 0.6119
vn 0.2719 0.1257 -0.9541
vn 0.2624 -0.4928 -0.8296
vn 0.3706 -0.6960 -0.6150
vn 0.7543 0.3486 -0.5562
vn -0.5821 0.7551 0.3015
vn -0.5821 0.7551 -0.3015
vn -0.1567 0.8013 -0.5773
vn -0.1567 0.8013 0.5773
vn -0.5773 -0.5773 -0.5773
vn 0.0000 -0.7071 -0.7071
vn 0.0000 -0.7071 0.7071
vn -0.5773 -0.5773 0.5773
vn 0.9288 0.2154 -0.3015
vn 0.6138 0.7296 -0.3015
vn 0.1907 0.7939 -0.5773
vn 0.7939 -0.1907 -0.5773
vn 0.2719 0.1257 0.9541
vn -0.2096 0.1334 0.9686
vn -0.7043 0.4484 0.5503
vn 0.7543 0.3486 0.5562
vn -0.7293 0.2225 -0.6469
vn 0.2687 0.4798 -0.8352
vn 0.5773 -0.5773 -0.5773
vn 0.5773 -0.5773 0.5773
vn -0.7293 0.2225 0.6469
vn 0.2687 0.4798 0.8352
vn 0.5773 0.5773 -0.5773
vn 0.5773 0.5773 0.5773
vn 0.9288 0.2154 0.3015
vn 0.6138 0.7296 0.3015
vn 0.7939 -0.1907 0.5773
vn 0.1907 0.7939 0.5773
vn 0.2624 -0.4928 0.8296
vn -0.2687 -0.4798 0.8352
vn -0.2687 -0.4798 -0.8352
vn -0.2096 0.1334 -0.9686
vn -0.7043 0.4484 -0.5503
vn -0.3865 -0.6901 -0.6119
vn 0.3706 -0.6960 0.6150
vn -0.3865 -0.6901 0.6119
vn -0.9188 0.2548 -0.3015
vn -0.9188 0.2548 0.3015
vn -0.8013 -0.1567 0.5773
vn -0.8013 -0.1567 -0.5773
vn 0.4714 0.4980 -0.7278
vn 0.3966 0.8484 -0.3507
vn 0.3966 -0.8484 -0.3507
vn 0.4714 -0.4980 -0.7278
vn 0.7032 -0.5185 -0.4863
vn 0.7032 0.5185 -0.4863
vn 0.7032 0.5185 0.4863
vn 0.3966 0.8484 0.3507
vn 0.3966 -0.8484 0.3507
vn 0.7032 -0.5185 0.4863
vn 0.4714 0.4980 0.7278
vn 0.4714 -0.4980 0.7278
vn -0.5959 0.6830 -0.4224
vn -0.5959 -0.6830 -0.4224
vn -0.5622 -0.6120 0.5561
vn -0.5622 0.6120 0.5561
vn 0.4445 -0.6533 0.6128
vn 0.4445 0.6533 0.6128
vn 0.4445 0.6533 -0.6128
vn 0.4445 -0.6533 -0.6128
vn -0.5622 -0.6120 -0.5561
vn -0.5622 0.6120 -0.5561
vn -0.5959 -0.6830 0.4224
vn -0.5959 0.6830 0.4224
vn 0.0000 0.8032 -0.5957
vn 0.0000 0.8032 0.5957
vn 0.7639 0.2482 0.5957
vn 0.7639 0.2482 -0.5957
vn 0.4721 -0.6498 0.5957
vn 0.4721 -0.6498 -0.5957
vn -0.4721 -0.6498 0.5957
vn -0.4721 -0.6498 -0.5957
vn -0.7639 0.2482 0.5957
vn -0.7639 0.2482 -0.5957
vn -0.4714 -0.4980 -0.7278
vn -0.3966 -0.8484 -0.3507
vn -0.3966 0.8484 -0.3507
vn -0.4714 0.4980 -0.7278
vn -0.7032 0.5185 -0.4863
vn -0.7032 -0.5185 -0.4863
vn -0.7032 -0.5185 0.4863
vn -0.3966 -0.8484 0.3507
vn -0.3966 0.8484 0.3507
vn -0.7032 0.5185 0.4863
vn -0.4714 -0.4980 0.7278
vn -0.4714 0.4980 0.7278
vn 0.5959 -0.6830 -0.4224
vn 0.5959 0.6830 -0.4224
vn 0.5622 0.6120 0.5561
vn 0.5622 -0.6120 0.5561
vn -0.4445 0.6533 0.6128
vn -0.4445 -0.6533 0.6128
vn -0.4445 -0.6533 -0.6128
vn -0.4445 0.6533 -0.6128
vn 0.5622 0.6120 -0.5561
vn 0.5622 -0.6120 -0.5561
vn 0.5959 0.6830 0.4224
vn 0.5959 -0.6830 0.4224
g Cube_Cube_CarPaint
usemtl CarPaint
s 1
f 49/1/1 63/2/2 62/3/3 47/4/4
f 12/5/5 5/6/6 56/7/7 60/8/8
f 52/9/9 45/10/10 65/11/11 68/12/12
f 6/13/13 2/14/14 4/15/15 8/16/16
f 3/17/17 11/18/18 44/19/19 42/20/20
f 10/21/21 40/22/22 59/23/23 53/24/24
f 6/25/13 64/26/25 50/27/26 2/14/14
f 4/15/15 2/14/14 14/28/27 16/29/28
f 8/30/16 61/31/29 64/26/25 6/25/13
f 4/15/15 51/32/30 61/33/29 8/34/16
f 14/28/27 13/35/31 15/36/32 16/29/28
f 50/27/26 51/32/30 15/36/32 13/35/31
f 51/32/30 4/15/15 16/29/28 15/36/32
f 2/14/14 50/27/26 13/35/31 14/28/27
f 3/17/17 1/37/33 49/1/1 47/4/4
f 1/37/33 9/38/34 50/27/26 49/1/1
f 11/18/18 3/17/17 47/4/4 51/32/30
f 9/38/34 11/18/18 51/32/30 50/27/26
f 1/37/33 3/17/17 42/20/20 41/39/35
f 11/18/18 9/38/34 43/40/36 44/19/19
f 9/38/34 1/37/33 41/39/35 43/40/36
f 10/21/21 7/41/37 62/42/3 61/33/29
f 7/41/37 38/43/38 47/4/4 62/42/3
f 37/44/39 5/6/6 63/45/2 49/1/1
f 39/46/40 37/44/39 49/1/1 50/27/26
f 38/43/38 40/22/22 51/32/30 47/4/4
f 5/6/6 12/5/5 64/26/25 63/45/2
f 12/5/5 39/46/40 50/27/26 64/26/25
f 40/22/22 10/21/21 61/33/29 51/32/30
f 37/44/39 39/46/40 58/47/41 57/48/42
f 38/43/38 7/41/37 54/49/43 55/50/44
f 39/46/40 12/5/5 60/8/8 58/47/41
f 40/22/22 38/43/38 55/50/44 59/23/23
f 5/6/6 37/44/39 57/48/42 56/7/7
f 7/41/37 10/21/21 53/24/24 54/49/43
f 46/51/45 45/10/10 61/31/29 62/52/3
f 48/53/46 46/51/45 62/52/3 63/45/2
f 52/9/9 48/53/46 63/45/2 64/26/25
f 45/10/10 52/9/9 64/26/25 61/31/29
f 46/51/45 48/53/46 67/54/47 66/55/48
f 48/53/46 52/9/9 68/12/12 67/54/47
f 45/10/10 46/51/45 66/55/48 65/11/11
g Cube_Cube_Window
usemtl Window
f 43/40/36 41/39/35 42/20/20 44/19/19
f 59/23/23 55/50/44 54/49/43 53/24/24
f 60/8/8 56/7/7 57/48/42 58/47/41
f 65/11/11 66/55/48 67/54/47 68/12/12
g Cube_Cube_Light
usemtl Light
f 101/56/49 98/57/50 97/58/51 104/59/52
f 100/60/53 97/58/51 98/57/50 94/61/54
f 93/62/55 96/63/56 95/64/57 99/65/58
f 96/63/56 102/66/59 103/67/60 95/64/57
f 115/68/61 114/69/62 111/70/63 112/71/64
f 107/72/65 108/73/66 112/71/64 111/70/63
f 106/74/67 105/75/68 109/76/69 110/77/70
f 110/77/70 109/76/69 116/78/71 113/79/72
f 93/62/55 99/65/58 105/75/68 106/74/67
f 94/61/54 98/57/50 112/71/64 108/73/66
f 102/66/59 96/63/56 110/77/70 113/79/72
f 95/64/57 103/67/60 116/78/71 109/76/69
f 100/60/53 94/61/54 108/73/66 107/72/65
f 97/58/51 100/60/53 107/72/65 111/70/63
f 104/59/52 97/58/51 111/70/63 114/69/62
f 103/67/60 102/66/59 113/79/72 116/78/71
f 99/65/58 95/64/57 109/76/69 105/75/68
f 96/63/56 93/62/55 106/74/67 110/77/70
f 101/56/49 104/59/52 114/69/62 115/68/61
f 98/57/50 101/56/49 115/68/61 112/71/64
g Cube_Cube_Tire
usemtl Tire
f 17/80/73 18/81/74 20/82/75 19/83/76
f 19/83/76 20/82/75 22/84/77 21/85/78
f 21/85/78 22/84/77 24/86/79 23/87/80
f 20/88/75 18/89/74 26/90/81 24/91/79 22/92/77
f 23/87/80 24/86/79 26/93/81 25/94/82
f 25/94/82 26/93/81 18/95/74 17/96/73
f 17/97/73 19/98/76 21/99/78 23/100/80 25/101/82
f 27/102/73 28/103/74 30/104/75 29/105/76
f 29/105/76 30/104/75 32/106/77 31/107/78
f 31/107/78 32/106/77 34/108/79 33/109/80
f 30/110/75 28/111/74 36/112/81 34/113/79 32/114/77
f 33/109/80 34/108/79 36/115/81 35/116/82
f 35/116/82 36/115/81 28/117/74 27/118/73
f 27/119/73 29/120/76 31/121/78 33/122/80 35/123/82
g Cube_Cube_FrontLights
usemtl FrontLights
f 77/124/83 74/125/84 73/126/85 80/127/86
f 76/128/87 73/126/85 74/125/84 70/129/88
f 69/130/89 72/131/90 71/132/91 75/133/92
f 72/131/90 78/134/93 79/135/94 71/132/91
f 91/136/95 90/137/96 87/138/97 88/139/98
f 83/140/99 84/141/100 88/139/98 87/138/97
f 82/142/101 81/143/102 85/144/103 86/145/104
f 86/145/104 85/144/103 92/146/105 89/147/106
f 69/130/89 75/133/92 81/143/102 82/142/101
f 70/129/88 74/125/84 88/139/98 84/141/100
f 78/134/93 72/131/90 86/145/104 89/147/106
f 71/132/91 79/135/94 92/146/105 85/144/103
f 76/128/87 70/129/88 84/141/100 83/140/99
f 73/126/85 76/128/87 83/140/99 87/138/97
f 80/127/86 73/126/85 87/138/97 90/137/96
f 79/135/94 78/134/93 89/147/106 92/146/105
f 75/133/92 71/132/91 85/144/103 81/143/102
f 72/131/90 69/130/89 82/142/101 86/145/104
f 77/124/83 80/127/86 90/137/96 91/136/95
f 74/125/84 77/124/83 91/136/95 88/139/98
