# Blender v2.91.2 OBJ File: 'lowpolycar.blend'
# www.blender.org
mtllib pickuptruck.mtl
o Cube
v 1.257092 2.842203 -1.155393
v 2.017746 0.454775 -1.222196
v 1.257092 2.842203 1.155393
v 2.017746 0.454775 1.222196
v -0.481260 2.921764 -1.222196
v -2.421553 0.454775 -1.222196
v -0.481260 2.921764 1.222196
v -2.421553 0.454775 1.222196
v 1.982851 1.657449 -1.155393
v -0.531174 1.784350 1.222196
v 1.982851 1.657449 1.155393
v -0.531174 1.784350 -1.222196
v 3.142006 1.600484 -1.222196
v 3.142006 0.454775 -1.222196
v 3.142006 1.600484 1.222196
v 3.142006 0.454775 1.222196
v -0.712691 1.256935 -1.274269
v -0.712691 1.256935 1.274269
v -0.055915 0.779760 -1.274269
v -0.055915 0.779760 1.274269
v -0.306781 0.007674 -1.274269
v -0.306781 0.007673 1.274269
v -1.118601 0.007674 -1.274269
v -1.118601 0.007674 1.274269
v -1.369467 0.779760 -1.274269
v -1.369467 0.779760 1.274269
v 1.739505 1.256935 -1.274269
v 1.739505 1.256935 1.274269
v 2.396281 0.779760 -1.274269
v 2.396281 0.779760 1.274269
v 2.145415 0.007674 -1.274269
v 2.145415 0.007673 1.274269
v 1.333595 0.007674 -1.274269
v 1.333595 0.007674 1.274269
v 1.082729 0.779760 -1.274269
v 1.082729 0.779760 1.274269
v 1.198020 2.856005 -1.222196
v 1.198020 2.856005 1.222196
v 1.934768 1.653310 -1.222196
v 1.934768 1.653310 1.222196
v 1.233536 2.827773 -1.155393
v 1.233536 2.827773 1.155393
v 1.959295 1.643019 -1.155393
v 1.959295 1.643019 1.155393
v -0.576611 1.733892 1.195507
v -0.524558 2.920044 1.195507
v 1.222196 2.899168 1.222196
v -0.524558 2.920044 -1.195507
v 1.222196 2.899168 -1.222196
v 2.017746 1.600484 -1.222196
v 2.017746 1.600484 1.222196
v -0.576611 1.733892 -1.195507
v -0.531174 1.784350 1.198709
v -0.481260 2.921764 1.198709
v 1.198020 2.856005 1.198709
v -0.481260 2.921764 -1.198709
v 1.198020 2.856005 -1.198709
v 1.934768 1.653310 -1.198709
v 1.934768 1.653310 1.198709
v -0.531174 1.784350 -1.198709
v -0.578013 1.701934 1.222196
v -0.523155 2.952003 1.222196
v -0.523155 2.952003 -1.222196
v -0.578013 1.701934 -1.222196
v -0.552815 1.732391 1.195507
v -0.500763 2.918543 1.195507
v -0.500763 2.918543 -1.195507
v -0.552815 1.732391 -1.195507
v 2.835574 1.005802 -1.184536
v 2.835574 1.005802 1.184536
v 3.130023 1.375017 -1.184536
v 3.130023 1.005802 -1.184536
v 3.130023 1.375017 1.184536
v 3.130023 1.005802 1.184536
v 2.835574 1.375017 -1.184536
v 2.835574 1.375017 1.184536
v 3.130023 1.005802 0.394845
v 3.130023 1.005802 -0.394845
v 3.130023 1.375017 -0.394845
v 3.130023 1.375017 0.394845
v 2.857165 1.383103 -1.236418
v 2.857165 0.997716 -1.236418
v 2.857165 1.383103 1.236418
v 2.857165 0.997716 1.236418
v 3.164510 1.383103 -1.236418
v 3.164510 0.997716 -1.236418
v 3.164510 1.383103 1.236418
v 3.164510 0.997716 1.236418
v 3.164510 0.997716 -0.412139
v 3.164510 1.383103 0.412139
v 3.164510 0.997716 0.412139
v 3.164510 1.383103 -0.412139
v -2.085798 1.375017 -1.184536
v -2.085798 1.375017 1.184536
v -2.380246 1.005802 -1.184536
v -2.380246 1.375017 -1.184536
v -2.380246 1.005802 1.184536
v -2.380246 1.375017 1.184536
v -2.085798 1.005802 -1.184536
v -2.085798 1.005802 1.184536
v -2.380246 1.375017 0.394845
v -2.380246 1.375017 -0.394845
v -2.380246 1.005802 -0.394845
v -2.380246 1.005802 0.394845
v -2.107388 0.997717 -1.236418
v -2.107388 1.383103 -1.236418
v -2.107388 0.997717 1.236418
v -2.107388 1.383103 1.236418
v -2.414733 0.997717 -1.236418
v -2.414733 1.383103 -1.236418
v -2.414733 0.997717 1.236418
v -2.414733 1.383103 1.236418
v -2.414733 1.383103 -0.412139
v -2.414733 0.997717 0.412139
v -2.414733 1.383103 0.412139
v -2.414733 0.997717 -0.412139
v 2.017746 1.390714 -1.222196
v 2.017746 1.390714 1.222196
v -2.403275 1.473590 -1.222196
v -2.403275 1.473590 1.222196
v 3.142006 1.390714 -1.222196
v 3.142006 1.390714 1.222196
v -0.605511 1.698493 1.222196
v 2.017746 1.597324 -1.222196
v 2.017746 1.597324 1.222196
v -0.605511 1.698493 -1.222196
v 3.142006 1.597324 -1.222196
v 3.142006 1.597324 1.222196
v 2.017746 1.400418 -1.222196
v 2.017746 1.400418 1.222196
v -2.318845 1.484152 -1.222196
v 3.142006 1.400418 -1.222196
v 3.142006 1.400418 1.222196
v -2.318845 1.484152 1.222196
v -2.421553 0.454775 -1.156104
v -2.421553 0.454775 1.156104
v 1.222196 2.899168 -1.156104
v 1.222196 2.899168 1.156104
v -0.523155 2.952003 1.156104
v -0.523155 2.952003 -1.156104
v 2.017746 0.454775 1.156104
v 2.017746 0.454775 -1.156104
v 2.017746 1.600484 -1.156104
v 2.017746 1.600484 1.156104
v -0.578013 1.701934 1.156104
v -0.578013 1.701934 -1.156104
v 3.142006 0.454775 1.156104
v 3.142006 0.454775 -1.156104
v 3.142006 1.600484 -1.156104
v 3.142006 1.600484 1.156104
v 1.257092 2.842203 -1.092914
v 1.257092 2.842203 1.092914
v 1.982851 1.657449 -1.092914
v 1.982851 1.657449 1.092914
v 1.233536 2.827773 -1.092914
v 1.233536 2.827773 1.092914
v 1.959295 1.643019 -1.092914
v 1.959295 1.643019 1.092914
v -0.524558 2.920044 1.130858
v -0.524558 2.920044 -1.130858
v -0.576611 1.733892 1.130858
v -0.576611 1.733892 -1.130858
v -0.500763 2.918543 1.130858
v -0.500763 2.918543 -1.130858
v -0.552815 1.732391 1.130858
v -0.552815 1.732391 -1.130858
v 3.142006 1.390714 -1.156104
v 3.142006 1.390714 1.156104
v -2.403275 1.473590 1.156104
v -2.403275 1.473590 -1.156104
v 3.142006 1.597324 -1.156104
v 3.142006 1.597324 1.156104
v -0.605511 1.698493 1.156104
v -0.605511 1.698493 -1.156104
v -2.318845 1.484152 1.156104
v -2.318845 1.484152 -1.156104
v 3.142006 1.400418 -1.156104
v 3.142006 1.400418 1.156104
v -0.579421 1.489944 1.156104
v -0.579421 1.489944 -1.156104
v -2.292755 1.275602 1.156104
v -2.292755 1.275602 -1.156104
vt 0.625000 0.666667
vt 0.875000 0.666667
vt 0.875000 0.750000
vt 0.625000 0.750000
vt 0.540482 0.253389
vt 0.620861 0.254258
vt 0.620861 0.254258
vt 0.540482 0.253389
vt 0.538677 0.084243
vt 0.538677 0.002730
vt 0.538677 0.002730
vt 0.538677 0.084243
vt 0.125000 0.666667
vt 0.375000 0.666667
vt 0.375000 0.750000
vt 0.125000 0.750000
vt 0.621114 0.743168
vt 0.540298 0.743168
vt 0.540298 0.743168
vt 0.621114 0.743168
vt 0.540482 0.996611
vt 0.539629 0.753684
vt 0.539629 0.753684
vt 0.540482 0.996611
vt 0.535967 0.250000
vt 0.536412 0.250000
vt 0.536412 0.500000
vt 0.535967 0.500000
vt 0.375000 0.583333
vt 0.375000 0.500000
vt 0.375000 0.500000
vt 0.375000 0.583333
vt 0.535967 0.166667
vt 0.536412 0.166667
vt 0.535967 0.750000
vt 0.536412 0.750000
vt 0.536412 1.000000
vt 0.535967 1.000000
vt 0.535967 0.666667
vt 0.536412 0.666667
vt 0.536412 0.750000
vt 0.535967 0.750000
vt 0.536412 0.666667
vt 0.506859 0.750000
vt 0.375000 0.750000
vt 0.506859 0.750000
vt 0.536412 0.500000
vt 0.535967 0.500000
vt 0.621114 0.585611
vt 0.621114 0.506832
vt 0.625000 0.500000
vt 0.625000 0.583333
vt 0.540298 0.506832
vt 0.540298 0.664389
vt 0.621114 0.664389
vt 0.621114 0.664389
vt 0.540298 0.585611
vt 0.540298 0.506832
vt 0.540298 0.585611
vt 0.621114 0.506832
vt 0.620861 0.995742
vt 0.625000 1.000000
vt 0.621852 0.754390
vt 0.621852 0.495610
vt 0.625000 0.250000
vt 0.539629 0.496316
vt 0.539629 0.496316
vt 0.621852 0.495610
vt 0.620861 0.995742
vt 0.621852 0.754390
vt 0.622735 0.002730
vt 0.536412 0.000000
vt 0.625000 0.000000
vt 0.622735 0.084243
vt 0.625000 0.083333
vt 0.538677 0.247270
vt 0.622735 0.247270
vt 0.538677 0.165757
vt 0.622735 0.165757
vt 0.622735 0.247270
vt 0.622735 0.165757
vt 0.538677 0.247270
vt 0.622735 0.002730
vt 0.506859 0.500000
vt 0.506859 0.500000
vt 0.508226 0.750000
vt 0.508226 0.750000
vt 0.375000 0.666667
vt 0.506859 0.666667
vt 0.506859 1.000000
vt 0.375000 1.000000
vt 0.375000 0.166667
vt 0.506859 0.166667
vt 0.506859 0.250000
vt 0.375000 0.250000
vt 0.508226 0.500000
vt 0.508226 0.500000
vt 0.508226 0.666667
vt 0.508226 1.000000
vt 0.508226 0.166667
vt 0.508226 0.250000
vt 0.508226 0.583333
vt 0.506859 0.583333
vt 0.506859 0.000000
vt 0.508226 0.000000
vt 0.508226 0.083333
vt 0.506859 0.083333
vt 0.535967 0.000000
vt 0.535967 0.083333
vt 0.535967 0.166667
vt 0.535967 0.083333
vt 0.535967 0.583333
vt 0.375000 0.000000
vt 0.375000 0.083333
vt 0.622735 0.084243
vt 0.536412 0.083333
vt 0.625000 0.166667
vt 0.540298 0.664389
vt 0.621114 0.585611
vt 0.536412 0.583333
vt 0.536412 0.583333
vt 0.125000 0.500000
vt 0.125000 0.583333
vt 0.538677 0.165757
vt 0.875000 0.500000
vt 0.875000 0.583333
vt 0.508226 0.083333
vt 0.508226 0.166667
vt 0.375000 0.666667
vt 0.375000 0.750000
vt 0.536412 0.750000
vt 0.536412 0.666667
vt 0.536412 0.750000
vt 0.375000 0.750000
vt 0.375000 0.500000
vt 0.375000 0.500000
vt 0.536412 0.500000
vt 0.536412 0.500000
vt 0.375000 0.583333
vt 0.536412 0.583333
vt 0.375000 0.666667
vt 0.536412 0.666667
vt 0.536412 0.750000
vt 0.375000 0.750000
vt 0.536412 0.750000
vt 0.375000 0.750000
vt 0.375000 0.500000
vt 0.536412 0.500000
vt 0.536412 0.500000
vt 0.375000 0.500000
vt 0.536412 0.583333
vt 0.375000 0.583333
vt 1.000000 0.500000
vt 1.000000 1.000000
vt 0.800000 1.000000
vt 0.800000 0.500000
vt 0.600000 1.000000
vt 0.600000 0.500000
vt 0.400000 1.000000
vt 0.400000 0.500000
vt 0.478254 0.324164
vt 0.250000 0.490000
vt 0.021746 0.324164
vt 0.108932 0.055836
vt 0.391068 0.055836
vt 0.200000 1.000000
vt 0.200000 0.500000
vt 0.000000 1.000000
vt 0.000000 0.500000
vt 0.750000 0.490000
vt 0.978254 0.324164
vt 0.891068 0.055836
vt 0.608932 0.055836
vt 0.521746 0.324164
vt 1.000000 0.500000
vt 1.000000 1.000000
vt 0.800000 1.000000
vt 0.800000 0.500000
vt 0.600000 1.000000
vt 0.600000 0.500000
vt 0.400000 1.000000
vt 0.400000 0.500000
vt 0.478254 0.324164
vt 0.250000 0.490000
vt 0.021746 0.324164
vt 0.108932 0.055836
vt 0.391068 0.055836
vt 0.200000 1.000000
vt 0.200000 0.500000
vt 0.000000 1.000000
vt 0.000000 0.500000
vt 0.750000 0.490000
vt 0.978254 0.324164
vt 0.891068 0.055836
vt 0.608932 0.055836
vt 0.521746 0.324164
vt 0.375000 0.666667
vt 0.375000 0.750000
vt 0.536412 0.750000
vt 0.536412 0.666667
vt 0.536412 0.750000
vt 0.375000 0.750000
vt 0.375000 0.500000
vt 0.375000 0.500000
vt 0.536412 0.500000
vt 0.536412 0.500000
vt 0.375000 0.583333
vt 0.536412 0.583333
vt 0.375000 0.666667
vt 0.536412 0.666667
vt 0.536412 0.750000
vt 0.375000 0.750000
vt 0.536412 0.750000
vt 0.375000 0.750000
vt 0.375000 0.500000
vt 0.536412 0.500000
vt 0.536412 0.500000
vt 0.375000 0.500000
vt 0.536412 0.583333
vt 0.375000 0.583333
vn 0.5018 0.8650 0.0000
vn -0.6804 0.7328 0.0000
vn -0.5552 0.5979 0.5781
vn 0.3960 0.6826 0.6141
vn 0.3175 0.2881 -0.9034
vn 0.2895 -0.3146 -0.9040
vn 0.5528 -0.6007 -0.5776
vn 0.6044 0.5484 -0.5778
vn -0.6683 0.7439 0.0000
vn -0.8883 0.3420 -0.3064
vn -0.5462 0.6079 -0.5763
vn -0.7134 -0.7007 0.0000
vn 0.0000 -1.0000 0.0000
vn 0.0000 -0.7071 0.7071
vn -0.5830 -0.5726 0.5764
vn 0.9288 0.2154 -0.3015
vn 0.6138 0.7296 -0.3015
vn 0.1907 0.7939 -0.5773
vn 0.7939 -0.1907 -0.5773
vn 0.3175 0.2881 0.9034
vn -0.2279 0.1357 0.9642
vn -0.7164 0.4266 0.5521
vn 0.6044 0.5484 0.5778
vn -0.0878 0.7016 -0.7071
vn -0.3433 0.3167 -0.8842
vn 0.2687 0.4798 -0.8352
vn 0.0000 0.0000 -1.0000
vn 0.0000 -0.7071 -0.7071
vn 0.5773 -0.5773 -0.5773
vn 0.7071 -0.7071 0.0000
vn -0.4115 0.8601 0.3015
vn -0.7350 0.6780 0.0000
vn 0.0000 0.0000 1.0000
vn 0.2687 0.4798 0.8352
vn -0.3433 0.3167 0.8842
vn -0.0878 0.7016 0.7071
vn 1.0000 0.0000 0.0000
vn 0.7071 0.7071 0.0000
vn 0.5773 0.5773 0.5773
vn 0.7071 0.0000 0.7071
vn 0.4887 0.8724 0.0000
vn 0.5773 -0.5773 0.5773
vn 0.5773 0.5773 -0.5773
vn 0.7071 0.0000 -0.7071
vn 0.9723 -0.2336 0.0000
vn 0.9288 0.2154 0.3015
vn 0.3960 0.6826 -0.6141
vn 0.6138 0.7296 0.3015
vn 0.2336 0.9723 0.0000
vn 0.1907 0.7939 0.5773
vn 0.7939 -0.1907 0.5773
vn 0.2895 -0.3146 0.9040
vn -0.2820 -0.4811 0.8300
vn -0.2820 -0.4811 -0.8300
vn -0.5552 0.5979 -0.5781
vn -0.2279 0.1357 -0.9642
vn -0.7164 0.4266 -0.5521
vn -0.3988 -0.6804 -0.6148
vn 0.5528 -0.6007 0.5776
vn -0.3988 -0.6804 0.6148
vn -0.9189 -0.2602 -0.2966
vn -0.7439 -0.6683 0.0000
vn -0.8883 0.3420 0.3064
vn -0.9189 -0.2602 0.2966
vn -0.6068 -0.5452 0.5784
vn -0.5462 0.6079 0.5763
vn -0.6068 -0.5452 -0.5784
vn -0.6031 0.5420 0.5852
vn -0.7437 0.6684 0.0000
vn -0.6031 0.5420 -0.5852
vn -0.5830 -0.5726 -0.5764
vn 0.1869 0.9350 0.3015
vn 0.1869 0.9350 -0.3015
vn -0.4115 0.8601 -0.3015
vn -0.6446 0.5012 0.5773
vn -0.6446 0.5012 -0.5773
vn 0.5012 0.6446 -0.5773
vn 0.5012 0.6446 0.5773
vn 0.4714 0.4980 -0.7278
vn 0.3966 0.8484 -0.3507
vn 0.3966 -0.8484 -0.3507
vn 0.4714 -0.4980 -0.7278
vn 0.7032 -0.5185 -0.4863
vn 0.7032 0.5185 -0.4863
vn 0.7032 0.5185 0.4863
vn 0.3966 0.8484 0.3507
vn 0.3966 -0.8484 0.3507
vn 0.7032 -0.5185 0.4863
vn 0.4714 0.4980 0.7278
vn 0.4714 -0.4980 0.7278
vn -0.5959 0.6830 -0.4224
vn -0.5959 -0.6830 -0.4224
vn -0.5622 -0.6120 0.5561
vn -0.5622 0.6120 0.5561
vn 0.4445 -0.6533 0.6128
vn 0.4445 0.6533 0.6128
vn 0.4445 0.6533 -0.6128
vn 0.4445 -0.6533 -0.6128
vn -0.5622 -0.6120 -0.5561
vn -0.5622 0.6120 -0.5561
vn -0.5959 -0.6830 0.4224
vn -0.5959 0.6830 0.4224
vn 0.0000 0.8032 -0.5957
vn 0.0000 0.8032 0.5957
vn 0.7639 0.2482 0.5957
vn 0.7639 0.2482 -0.5957
vn 0.4721 -0.6498 0.5957
vn 0.4721 -0.6498 -0.5957
vn -0.4721 -0.6498 0.5957
vn -0.4721 -0.6498 -0.5957
vn -0.7639 0.2482 0.5957
vn -0.7639 0.2482 -0.5957
vn -0.4714 -0.4980 -0.7278
vn -0.3966 -0.8484 -0.3507
vn -0.3966 0.8484 -0.3507
vn -0.4714 0.4980 -0.7278
vn -0.7032 0.5185 -0.4863
vn -0.7032 -0.5185 -0.4863
vn -0.7032 -0.5185 0.4863
vn -0.3966 -0.8484 0.3507
vn -0.3966 0.8484 0.3507
vn -0.7032 0.5185 0.4863
vn -0.4714 -0.4980 0.7278
vn -0.4714 0.4980 0.7278
vn 0.5959 -0.6830 -0.4224
vn 0.5959 0.6830 -0.4224
vn 0.5622 0.6120 0.5561
vn 0.5622 -0.6120 0.5561
vn -0.4445 0.6533 0.6128
vn -0.4445 -0.6533 0.6128
vn -0.4445 -0.6533 -0.6128
vn -0.4445 0.6533 -0.6128
vn 0.5622 0.6120 -0.5561
vn 0.5622 -0.6120 -0.5561
vn 0.5959 0.6830 0.4224
vn 0.5959 -0.6830 0.4224
usemtl CarPaint
s 1
f 138/1/1 139/2/2 62/3/3 47/4/4
f 12/5/5 5/6/6 56/7/7 60/8/8
f 161/9/9 45/10/10 65/11/11 165/12/9
f 136/13/12 141/14/13 4/15/14 8/16/15
f 3/17/16 11/18/17 44/19/18 42/20/19
f 10/21/20 40/22/21 59/23/22 53/24/23
f 126/25/24 64/26/25 50/27/26 124/28/27
f 142/29/13 2/30/28 14/31/29 148/32/30
f 174/33/31 146/34/32 64/26/25 126/25/24
f 125/35/33 51/36/34 61/37/35 123/38/36
f 172/39/37 150/40/38 15/41/39 128/42/40
f 144/43/41 51/36/34 15/41/39 150/40/38
f 118/44/33 4/15/14 16/45/42 122/46/40
f 124/28/27 50/27/26 13/47/43 127/48/44
f 151/49/45 1/50/46 49/51/47 137/52/1
f 1/50/46 9/53/48 50/27/26 49/51/47
f 11/18/17 3/17/16 47/4/4 51/36/34
f 154/54/49 11/18/17 51/36/34 144/43/41
f 152/55/45 3/17/16 42/20/19 156/56/45
f 153/57/49 9/53/48 43/58/50 157/59/49
f 9/53/48 1/50/46 41/60/51 43/58/50
f 10/21/20 7/61/52 62/62/3 61/37/35
f 7/61/52 38/63/53 47/4/4 62/62/3
f 37/64/54 5/6/6 63/65/55 49/51/47
f 39/66/56 37/64/54 49/51/47 50/27/26
f 38/63/53 40/22/21 51/36/34 47/4/4
f 5/6/6 12/5/5 64/26/25 63/65/55
f 12/5/5 39/66/56 50/27/26 64/26/25
f 40/22/21 10/21/20 61/37/35 51/36/34
f 37/64/54 39/66/56 58/67/57 57/68/58
f 38/63/53 7/61/52 54/69/59 55/70/60
f 39/66/56 12/5/5 60/8/8 58/67/57
f 40/22/21 38/63/53 55/70/60 59/23/22
f 5/6/6 37/64/54 57/68/58 56/7/7
f 7/61/52 10/21/20 53/24/23 54/69/59
f 46/71/61 45/10/10 61/72/35 62/73/3
f 159/74/62 46/71/61 62/73/3 139/75/2
f 52/76/63 48/77/64 63/65/55 64/26/25
f 162/78/9 52/76/63 64/26/25 146/34/32
f 160/79/62 48/77/64 67/80/65 164/81/62
f 48/77/64 52/76/63 68/82/66 67/80/65
f 45/10/10 46/71/61 66/83/67 65/11/11
f 2/30/28 117/84/27 121/85/44 14/31/29
f 130/86/33 118/44/33 122/46/40 133/87/40
f 147/88/30 168/89/37 122/46/40 16/45/42
f 4/15/14 118/44/33 120/90/68 8/91/15
f 135/92/12 170/93/69 119/94/70 6/95/71
f 6/95/71 119/94/70 117/84/27 2/30/28
f 51/36/34 125/35/33 128/42/40 15/41/39
f 129/96/27 124/28/27 127/48/44 132/97/44
f 178/98/37 172/39/37 128/42/40 133/87/40
f 130/86/33 125/35/33 123/38/36 134/99/36
f 176/100/72 174/33/31 126/25/24 131/101/24
f 131/101/24 126/25/24 124/28/27 129/96/27
f 119/94/70 131/101/24 129/96/27 117/84/27
f 170/93/69 176/100/72 131/101/24 119/94/70
f 118/44/33 130/86/33 134/99/36 120/90/68
f 168/89/37 178/98/37 133/87/40 122/46/40
f 117/84/27 129/96/27 132/97/44 121/85/44
f 125/35/33 130/86/33 133/87/40 128/42/40
f 121/85/44 132/97/44 177/102/37 167/103/37
f 167/103/37 177/102/37 178/98/37 168/89/37
f 120/104/68 134/105/36 175/106/73 169/107/69
f 169/107/69 175/106/73 176/100/72 170/93/69
f 134/105/36 123/108/36 173/109/74 175/106/73
f 173/109/74 174/33/31 180/110/75 179/111/76
f 132/97/44 127/48/44 171/112/37 177/102/37
f 177/102/37 171/112/37 172/39/37 178/98/37
f 8/113/15 120/104/68 169/107/69 136/114/12
f 136/114/12 169/107/69 170/93/69 135/92/12
f 14/31/29 121/85/44 167/103/37 148/32/30
f 148/32/30 167/103/37 168/89/37 147/88/30
f 46/71/61 159/74/62 163/115/62 66/83/67
f 159/74/62 160/79/62 164/81/62 163/115/62
f 45/10/10 161/9/9 145/116/32 61/72/35
f 161/9/9 162/78/9 146/34/32 145/116/32
f 48/77/64 160/79/62 140/117/2 63/65/55
f 160/79/62 159/74/62 139/75/2 140/117/2
f 11/18/17 154/54/49 158/118/49 44/19/18
f 154/54/49 153/57/49 157/59/49 158/118/49
f 1/50/46 151/49/45 155/119/45 41/60/51
f 151/49/45 152/55/45 156/56/45 155/119/45
f 9/53/48 153/57/49 143/120/41 50/27/26
f 153/57/49 154/54/49 144/43/41 143/120/41
f 3/17/16 152/55/45 138/1/1 47/4/4
f 152/55/45 151/49/45 137/52/1 138/1/1
f 50/27/26 143/120/41 149/121/38 13/47/43
f 143/120/41 144/43/41 150/40/38 149/121/38
f 127/48/44 13/47/43 149/121/38 171/112/37
f 171/112/37 149/121/38 150/40/38 172/39/37
f 123/108/36 61/72/35 145/116/32 173/109/74
f 173/109/74 145/116/32 146/34/32 174/33/31
f 4/15/14 141/14/13 147/88/30 16/45/42
f 141/14/13 142/29/13 148/32/30 147/88/30
f 6/122/71 2/30/28 142/29/13 135/123/12
f 135/123/12 142/29/13 141/14/13 136/13/12
f 52/76/63 162/78/9 166/124/9 68/82/66
f 162/78/9 161/9/9 165/12/9 166/124/9
f 49/51/47 63/125/55 140/126/2 137/52/1
f 137/52/1 140/126/2 139/2/2 138/1/1
f 181/127/77 179/111/76 180/110/75 182/128/78
f 175/106/73 173/109/74 179/111/76 181/127/77
f 174/33/31 176/100/72 182/128/78 180/110/75
f 176/100/72 175/106/73 181/127/77 182/128/78
usemtl Window
f 158/118/49 156/56/45 42/20/19 44/19/18
f 59/23/22 55/70/60 54/69/59 53/24/23
f 60/8/8 56/7/7 57/68/58 58/67/57
f 166/124/9 164/81/62 67/80/65 68/82/66
f 65/11/11 66/83/67 163/115/62 165/12/9
f 165/12/9 163/115/62 164/81/62 166/124/9
f 43/58/50 41/60/51 155/119/45 157/59/49
f 157/59/49 155/119/45 156/56/45 158/118/49
usemtl Light
f 101/129/79 98/130/80 97/131/81 104/132/82
f 100/133/83 97/131/81 98/130/80 94/134/84
f 93/135/85 96/136/86 95/137/87 99/138/88
f 96/136/86 102/139/89 103/140/90 95/137/87
f 115/141/91 114/142/92 111/143/93 112/144/94
f 107/145/95 108/146/96 112/144/94 111/143/93
f 106/147/97 105/148/98 109/149/99 110/150/100
f 110/150/100 109/149/99 116/151/101 113/152/102
f 93/135/85 99/138/88 105/148/98 106/147/97
f 94/134/84 98/130/80 112/144/94 108/146/96
f 102/139/89 96/136/86 110/150/100 113/152/102
f 95/137/87 103/140/90 116/151/101 109/149/99
f 100/133/83 94/134/84 108/146/96 107/145/95
f 97/131/81 100/133/83 107/145/95 111/143/93
f 104/132/82 97/131/81 111/143/93 114/142/92
f 103/140/90 102/139/89 113/152/102 116/151/101
f 99/138/88 95/137/87 109/149/99 105/148/98
f 96/136/86 93/135/85 106/147/97 110/150/100
f 101/129/79 104/132/82 114/142/92 115/141/91
f 98/130/80 101/129/79 115/141/91 112/144/94
usemtl Tire
f 17/153/103 18/154/104 20/155/105 19/156/106
f 19/156/106 20/155/105 22/157/107 21/158/108
f 21/158/108 22/157/107 24/159/109 23/160/110
f 20/161/105 18/162/104 26/163/111 24/164/109 22/165/107
f 23/160/110 24/159/109 26/166/111 25/167/112
f 25/167/112 26/166/111 18/168/104 17/169/103
f 17/170/103 19/171/106 21/172/108 23/173/110 25/174/112
f 27/175/103 28/176/104 30/177/105 29/178/106
f 29/178/106 30/177/105 32/179/107 31/180/108
f 31/180/108 32/179/107 34/181/109 33/182/110
f 30/183/105 28/184/104 36/185/111 34/186/109 32/187/107
f 33/182/110 34/181/109 36/188/111 35/189/112
f 35/189/112 36/188/111 28/190/104 27/191/103
f 27/192/103 29/193/106 31/194/108 33/195/110 35/196/112
usemtl FrontLights
f 77/197/113 74/198/114 73/199/115 80/200/116
f 76/201/117 73/199/115 74/198/114 70/202/118
f 69/203/119 72/204/120 71/205/121 75/206/122
f 72/204/120 78/207/123 79/208/124 71/205/121
f 91/209/125 90/210/126 87/211/127 88/212/128
f 83/213/129 84/214/130 88/212/128 87/211/127
f 82/215/131 81/216/132 85/217/133 86/218/134
f 86/218/134 85/217/133 92/219/135 89/220/136
f 69/203/119 75/206/122 81/216/132 82/215/131
f 70/202/118 74/198/114 88/212/128 84/214/130
f 78/207/123 72/204/120 86/218/134 89/220/136
f 71/205/121 79/208/124 92/219/135 85/217/133
f 76/201/117 70/202/118 84/214/130 83/213/129
f 73/199/115 76/201/117 83/213/129 87/211/127
f 80/200/116 73/199/115 87/211/127 90/210/126
f 79/208/124 78/207/123 89/220/136 92/219/135
f 75/206/122 71/205/121 85/217/133 81/216/132
f 72/204/120 69/203/119 82/215/131 86/218/134
f 77/197/113 80/200/116 90/210/126 91/209/125
f 74/198/114 77/197/113 91/209/125 88/212/128
